<svg xmlns="http://www.w3.org/2000/svg" width="58.999" height="128.42" viewBox="0 0 58.999 128.42">
  <g id="Groupe_39782" data-name="Groupe 39782" transform="translate(-517.569 -492.742)">
    <g id="Groupe_39718" data-name="Groupe 39718" transform="translate(517.569 531.587)">
      <path id="Tracé_78007" data-name="Tracé 78007" d="M536.157,539.478c-4.239-7.558,1.6-18.04,10.374-17.986,9.467-1.043,16.334,10.767,11.106,18.609-1.585,4.348-8.383,3.833-8.641,8.79a23.939,23.939,0,0,0,11.106-1.72c4.239-.677,4.93,4.524,3.792,7.463-4.239,3.454-9.467-1.72-14.37-.461-.284,11.905-.014,23.837.8,35.715-.108,4.4,3.413,9.819,8.37,8.763,5.2-1.449,10.632-4.659,12.528-10a4.668,4.668,0,0,0-2.939-5.932,37.758,37.758,0,0,0,3.7-14.465c3.806,8.126,6.826,18.135,2.37,26.627-3.67,6.691-11.526,9.007-18.528,10.32-3.63.569-6.42,3.075-8.708,5.8-5.092-7.5-15.318-5.512-22.036-10.523-4.93-3.02-7.49-8.925-7.5-14.573-.135-6.135,2.167-11.932,4.348-17.566.758,5,1.666,10.036,4.1,14.519-3.061.6-4.063,4.429-2.628,6.907,2.113,4.415,6.664,6.989,11.038,8.668,4.564,1.693,9.02-2.6,9.2-7.043,1.273-12.3,1.016-24.7,1.165-37.069-2.153.041-4.293.081-6.447.135-2.018.664-4.212,2.546-6.393,1.354-3.86-1.6-2.641-9.806,2.14-8.532a23.761,23.761,0,0,0,11.417,1.544C544.54,543.92,537.633,544.259,536.157,539.478Zm7.9-11.472c-4.551,1.788-6.3,8.235-2.709,11.81,3.684,5.052,12.866,2.4,13.164-3.9C555.673,530.35,549.091,525.257,544.052,528.006Z" transform="translate(-517.569 -521.427)" fill="#fff"/>
    </g>
    <line id="Ligne_24" data-name="Ligne 24" x2="0.445" y2="44.64" transform="translate(546.846 492.757)" fill="#292660" stroke="#fff" stroke-miterlimit="10" stroke-width="3" stroke-dasharray="3"/>
  </g>
</svg>
