<svg xmlns="http://www.w3.org/2000/svg" width="102.055" height="53.263" viewBox="0 0 102.055 53.263">
  <path id="Tracé_78052" data-name="Tracé 78052" d="M553.142,247.443A1.141,1.141,0,0,0,552,248.584a1.569,1.569,0,1,1-3.131,0,1.14,1.14,0,0,0-1.14-1.141h-.055a1.141,1.141,0,0,0-1.141,1.141,1.624,1.624,0,0,1-1.565,1.674,1.6,1.6,0,0,1-1.544-1.413l5.695-16.013,1.337-3.485a1.6,1.6,0,0,0-1.492-2.169H534.128a1.6,1.6,0,0,0-1.053.4l-.31,1.722c-2.026.174-7.606,0-7.606,0s-17.695.529-24.943,0h-5.877l-3.449-13.167a1.6,1.6,0,0,0-1.545-1.193H484.48V202.375a1.6,1.6,0,0,0-1.6-1.6h-10.42a1.6,1.6,0,0,0-1.6,1.6v12.563h-5.925a1.6,1.6,0,0,0-1.545,1.193l-3.468,13.238-3.587.009a1.6,1.6,0,0,0-1.584,1.769,84.257,84.257,0,0,0,1.624,9.29,34.481,34.481,0,0,0,2.768,8.032,1.054,1.054,0,0,0-.011.115,1.569,1.569,0,1,1-3.131,0,1.14,1.14,0,1,0-2.281,0,3.907,3.907,0,0,0,3.847,3.956,3.784,3.784,0,0,0,2.733-1.175,3.767,3.767,0,0,0,5.466,0,3.766,3.766,0,0,0,5.465,0,3.767,3.767,0,0,0,5.466,0,3.767,3.767,0,0,0,5.466,0,3.766,3.766,0,0,0,5.465,0,3.767,3.767,0,0,0,5.466,0,3.767,3.767,0,0,0,5.466,0,3.764,3.764,0,0,0,5.436.029,3.763,3.763,0,0,0,5.435-.029,3.767,3.767,0,0,0,5.466,0,3.767,3.767,0,0,0,5.466,0,3.766,3.766,0,0,0,5.465,0,3.767,3.767,0,0,0,5.466,0,3.767,3.767,0,0,0,5.466,0,3.755,3.755,0,0,0,5.121.313,1.6,1.6,0,0,0,.4-.258,10.166,10.166,0,0,1,8.14,1.12,3.907,3.907,0,0,0,3.846-3.956A1.14,1.14,0,0,0,553.142,247.443Zm-71.856-41.455H474.06v-2.016h7.226Zm-7.226,8.95v-5.756h7.226v5.764H474.06Zm-1.761,3.194c.055.005.109.008.165.008h10.42c.055,0,.11,0,.164-.008h5.064l2.924,11.165.016.062H463.233l2.941-11.227Zm-9.091,14.421h29.913a1.609,1.609,0,0,0,.433-.062h38.158a1.6,1.6,0,0,0,1.052-.4l1.964-1.722h11.915l-.511,1.335-.014.036-1.129,3.176H458.529c-.153-.9-.274-1.7-.367-2.352ZM539.5,250.259a1.5,1.5,0,0,1-.242-.022,1.646,1.646,0,0,1-1.323-1.653,1.141,1.141,0,0,0-1.141-1.141h-.055a1.14,1.14,0,0,0-1.14,1.141,1.569,1.569,0,1,1-3.131,0,1.14,1.14,0,0,0-1.14-1.141h-.055a1.141,1.141,0,0,0-1.141,1.141,1.568,1.568,0,1,1-3.13,0,1.141,1.141,0,0,0-1.141-1.141h-.055a1.141,1.141,0,0,0-1.141,1.141,1.568,1.568,0,1,1-3.13,0,1.141,1.141,0,0,0-1.141-1.141h-.055a1.14,1.14,0,0,0-1.14,1.141,1.569,1.569,0,1,1-3.13,0,1.141,1.141,0,0,0-1.141-1.141h-.054a1.141,1.141,0,0,0-1.141,1.141,1.568,1.568,0,1,1-3.13,0,1.141,1.141,0,0,0-1.141-1.141h-.055a1.141,1.141,0,0,0-1.141,1.141,1.566,1.566,0,1,1-3.128.048c0-.016,0-.032,0-.048a1.141,1.141,0,0,0-1.141-1.141h0a1.141,1.141,0,0,0-1.141,1.141c0,.016,0,.032,0,.048a1.566,1.566,0,1,1-3.128-.048,1.141,1.141,0,0,0-1.141-1.141h-.055a1.14,1.14,0,0,0-1.14,1.141,1.569,1.569,0,1,1-3.131,0,1.141,1.141,0,0,0-1.141-1.141h-.054a1.141,1.141,0,0,0-1.141,1.141,1.568,1.568,0,1,1-3.13,0,1.141,1.141,0,0,0-1.141-1.141h-.055a1.141,1.141,0,0,0-1.141,1.141,1.568,1.568,0,1,1-3.13,0,1.141,1.141,0,0,0-1.141-1.141h-.055A1.141,1.141,0,0,0,481,248.584a1.568,1.568,0,1,1-3.13,0,1.141,1.141,0,0,0-1.141-1.141h-.054a1.141,1.141,0,0,0-1.141,1.141,1.568,1.568,0,1,1-3.13,0,1.141,1.141,0,0,0-1.141-1.141h-.055a1.141,1.141,0,0,0-1.141,1.141,1.568,1.568,0,1,1-3.13,0,1.141,1.141,0,0,0-1.141-1.141h-.055a1.141,1.141,0,0,0-1.141,1.141,1.74,1.74,0,0,1-.29.968,1.593,1.593,0,0,0-.356-.214c-1.519-.657-3.186-4.25-4.461-9.61-.242-1.02-.455-2.031-.638-2.984h85.481l-4.6,12.943a1.611,1.611,0,0,0-.091.547v.018C539.6,250.256,539.551,250.259,539.5,250.259Z" transform="translate(-452.977 -200.028)" fill="none" stroke="#f54b2a" stroke-linecap="round" stroke-width="1.5"/>
</svg>
