<svg xmlns="http://www.w3.org/2000/svg" width="89.833" height="104.156" viewBox="0 0 89.833 104.156">
  <g id="Groupe_39786" data-name="Groupe 39786" transform="translate(-327.355 -466.281)">
    <path id="Tracé_32" data-name="Tracé 32" d="M351.642,509.907a3.051,3.051,0,1,0-3.015-3.051A3.032,3.032,0,0,0,351.642,509.907Z" transform="translate(5.193 8.764)" fill="none" stroke="#f5f5f5" stroke-linecap="round" stroke-width="1"/>
    <path id="Tracé_33" data-name="Tracé 33" d="M414.687,558.97h-4.01v-5.023a1.992,1.992,0,0,0-2-1.981h-4.767v-83.2a1.992,1.992,0,0,0-2-1.981H342.637a1.992,1.992,0,0,0-2,1.981v83.2h-4.768a1.991,1.991,0,0,0-2,1.981v5.023h-4.01a1.991,1.991,0,0,0-2,1.981v7a1.992,1.992,0,0,0,2,1.981h84.831a1.992,1.992,0,0,0,2-1.981v-7A1.991,1.991,0,0,0,414.687,558.97Zm-2,7H331.859v-3.041h80.826Zm-74.816-10.044h68.806v3.041H337.869Zm6.77-85.186H399.9v81.222H396.8V477.079a1.991,1.991,0,0,0-2-1.981H349.747a1.992,1.992,0,0,0-2,1.981v74.886h-3.107Zm37.47,81.707H363.327v-12.77h6.544v7.3l1.429-.918,1.559.918,1.6-.918,1.4.918v-7.3h6.247v12.77ZM371.91,532l1.195.705,1.229-.705,1.075.705v-5.273h4.459v9.136h-13.74v-9.136h4.686v5.273Zm20.884,19.966h-7.826v-13.7a1.422,1.422,0,0,0-1.429-1.416h-.811V526.018a1.423,1.423,0,0,0-1.43-1.416H364.7a1.423,1.423,0,0,0-1.43,1.416v10.833H361.9a1.423,1.423,0,0,0-1.43,1.416v13.7H351.75v-72.9h41.044Z" transform="translate(0 0)" fill="none" stroke="#f5f5f5" stroke-linecap="round" stroke-width="1"/>
  </g>
</svg>
