<svg xmlns="http://www.w3.org/2000/svg" width="106.806" height="118.858" viewBox="0 0 106.806 118.858">
  <g id="Groupe_39848" data-name="Groupe 39848" transform="translate(-135.491 -103.708)">
    <g id="Groupe_39732" data-name="Groupe 39732" transform="translate(137.396 104.458)">
      <path id="Tracé_78033" data-name="Tracé 78033" d="M240.392,179.09h0l-13.518-18.2-13.519,18.2,10.187-2.829c-.347,6.754-3.9,12.876-9.515,17.467a34.775,34.775,0,0,1-7.117,4.471q-1.31.622-2.7,1.154a42.168,42.168,0,0,1-12.026,2.656V148.77h12.7a8.009,8.009,0,0,0,6.863,3.362h0a9.193,9.193,0,0,0,4.26-1.012,7.594,7.594,0,0,0,1.128-.724,5.342,5.342,0,0,0,2.232-4.189h0c0-3.271-3.412-5.924-7.621-5.924a8.343,8.343,0,0,0-6.339,2.647,5.785,5.785,0,0,0-.524.715h-12.7v-7.555c5.643-1.139,9.822-5.132,9.822-9.871a8.061,8.061,0,0,0-.068-1.037c-.018-.136-.054-.267-.079-.4-.037-.2-.067-.406-.119-.6-.043-.167-.108-.328-.161-.492s-.1-.323-.159-.479c-.074-.185-.167-.362-.253-.542-.063-.129-.115-.262-.183-.388-.109-.2-.238-.4-.364-.591-.063-.1-.116-.2-.182-.294-.151-.218-.32-.426-.49-.634-.054-.066-.1-.135-.157-.2-.2-.227-.409-.444-.627-.657-.04-.039-.075-.082-.116-.121-.245-.233-.5-.455-.774-.669l-.057-.05q-.437-.343-.915-.654h0a14.95,14.95,0,0,0-6.059-2.209v-9.909a1.478,1.478,0,0,0-.193-.724,2.445,2.445,0,0,0-2.161-1.106,2.912,2.912,0,0,0-.973.168,2.272,2.272,0,0,0-1.017.695,1.566,1.566,0,0,0-.344.815c0,.051-.019.1-.019.152V116.2c-6.111.866-10.762,5.027-10.762,10.023,0,4.739,4.178,8.732,9.822,9.871v7.555H172.9a8.009,8.009,0,0,0-6.863-3.362c-4.208,0-7.621,2.652-7.621,5.924s3.413,5.924,7.621,5.924a8.01,8.01,0,0,0,6.863-3.362h12.7v53.24c-17.126-1.262-30.659-12.241-31.353-25.749l10.187,2.829-13.518-18.2L137.4,179.09l10.248-2.846c.626,14.733,14.088,26.985,31.953,30.194l8.97,14.568,1.105-2.293h0l8.519-12.275a46.368,46.368,0,0,0,17.8-7.079q1.255-.85,2.418-1.776a36.206,36.206,0,0,0,3.374-3.084c4.987-5.116,8.075-11.41,8.365-18.255l7.55,2.1,2.7.749Zm-49.145-55.019" transform="translate(-137.396 -104.458)" fill="none" stroke="#fefefe" stroke-linecap="round" stroke-miterlimit="10" stroke-width="1.5"/>
    </g>
    <circle id="Ellipse_19" data-name="Ellipse 19" cx="5.338" cy="5.338" r="5.338" transform="translate(183.555 121.909)" fill="none" stroke="#fefefe" stroke-linecap="round" stroke-miterlimit="10" stroke-width="1.5"/>
  </g>
</svg>
