<svg xmlns="http://www.w3.org/2000/svg" width="99.019" height="88.169" viewBox="0 0 99.019 88.169">
  <path id="Tracé_78053" data-name="Tracé 78053" d="M151.562,245.2l-35.813-36.44a17.014,17.014,0,0,0-23.616,0L56.32,245.2a2.707,2.707,0,0,0-.523,3.18,3.386,3.386,0,0,0,3.042,1.741h6.124v37.074a3.172,3.172,0,0,0,3.342,2.97h71.271a3.174,3.174,0,0,0,3.345-2.97V250.118h6.121a3.39,3.39,0,0,0,3.044-1.741A2.708,2.708,0,0,0,151.562,245.2ZM97.171,212.66a9.755,9.755,0,0,1,13.54,0l30.979,31.521h-75.5Zm39.063,71.565H71.65V250.118h64.584Z" transform="translate(-54.432 -202.993)" fill="none" stroke="#f5f5f5" stroke-linecap="round" stroke-width="2" opacity="0.78"/>
</svg>
