<svg xmlns="http://www.w3.org/2000/svg" width="129.238" height="129.244" viewBox="0 0 129.238 129.244">
  <g id="Groupe_39820" data-name="Groupe 39820" transform="translate(-1809.464 -148.852)">
    <g id="Groupe_39788" data-name="Groupe 39788" transform="translate(1857.517 196.908)">
      <circle id="Ellipse_20" data-name="Ellipse 20" cx="16.566" cy="16.566" r="16.566" transform="translate(0)" fill="#f54b2a"/>
    </g>
    <g id="Groupe_39819" data-name="Groupe 39819" transform="translate(1809.464 148.852)">
      <path id="Tracé_78057" data-name="Tracé 78057" d="M423.5,234.885c-1.528,2.011-2.559,6.019-2.559,8.818,0,3.9,2.02,7.041,4.512,7.041,2.509,0,4.538-3.144,4.538-7.041a16.964,16.964,0,0,0-2.579-8.749V232.26a45.914,45.914,0,0,0,29.25-12.161l1.892,1.9c.342,2.5,2.445,6.063,4.424,8.053,2.736,2.741,6.393,3.541,8.168,1.774s.976-5.425-1.774-8.178a16.738,16.738,0,0,0-8-4.375l-1.935-1.953a45.879,45.879,0,0,0,12.07-29.24h2.707c2.017,1.533,6.042,2.579,8.832,2.579,3.891,0,7.033-2.043,7.033-4.532,0-2.515-3.142-4.532-7.033-4.532a17.2,17.2,0,0,0-8.762,2.559h-2.787a45.873,45.873,0,0,0-12.154-29.145l1.982-1.977c2.5-.344,6.079-2.451,8.047-4.425,2.75-2.742,3.547-6.4,1.774-8.178s-5.431-.962-8.168,1.779a17.094,17.094,0,0,0-4.385,8.007l-2.028,2.02a45.876,45.876,0,0,0-29.152-12.063v-2.817c1.528-2.011,2.579-6.013,2.579-8.83,0-3.885-2.029-7.022-4.538-7.022-2.492,0-4.512,3.138-4.512,7.022A17.092,17.092,0,0,0,423.5,137.3v2.871a45.909,45.909,0,0,0-29.157,12.063l-1.983-1.979c-.344-2.5-2.451-6.083-4.431-8.049-2.744-2.753-6.4-3.541-8.168-1.779-1.762,1.779-.98,5.436,1.768,8.178a17.335,17.335,0,0,0,8.007,4.385l2.029,2.017a45.953,45.953,0,0,0-12.155,29.145H376.7c-2.029-1.5-6.044-2.559-8.842-2.559-3.874,0-7.023,2.017-7.023,4.532,0,2.489,3.148,4.532,7.023,4.532a17.109,17.109,0,0,0,8.772-2.579H379.4a45.854,45.854,0,0,0,12.084,29.24l-1.9,1.9c-2.5.35-6.071,2.449-8.059,4.427-2.749,2.753-3.53,6.4-1.768,8.178s5.424.967,8.168-1.774a17.068,17.068,0,0,0,4.395-8.015l1.927-1.935A45.875,45.875,0,0,0,423.5,232.26Zm28.959-24.526-14.3-14.33a16.2,16.2,0,0,0,3.312-7.951h20.182A36.027,36.027,0,0,1,452.455,210.359Zm9.192-26.207H441.466a16.039,16.039,0,0,0-3.312-7.949l14.227-14.231A36.058,36.058,0,0,1,461.648,184.152Zm-34.239-34.126a36.093,36.093,0,0,1,22.2,9.174l-14.233,14.227a16.129,16.129,0,0,0-7.963-3.313Zm4.06,34.126c-.107-.292-.243-.594-.385-.893l3.99-3.984a11.869,11.869,0,0,1,2.019,4.877Zm5.611,3.926a11.68,11.68,0,0,1-2.006,4.9l-3.929-3.943a7.263,7.263,0,0,0,.371-.957Zm-9.672-13.6A11.766,11.766,0,0,1,432.3,176.5l-4.023,4.025a7.711,7.711,0,0,0-.866-.351Zm0,17.772a6.26,6.26,0,0,0,.98-.408l3.909,3.907a11.851,11.851,0,0,1-4.889,2Zm0,9.87a16,16,0,0,0,7.963-3.307l14.318,14.337a36.037,36.037,0,0,1-22.281,9.244Zm-3.912-4.37a11.668,11.668,0,0,1-4.888-2.011l3.9-3.909a5.371,5.371,0,0,0,.986.42Zm-4.106-9.67a5.925,5.925,0,0,0,.379.957l-3.92,3.924a11.414,11.414,0,0,1-2.029-4.882Zm-5.57-3.926a11.453,11.453,0,0,1,2.029-4.869l3.988,3.99a7.459,7.459,0,0,0-.394.88Zm9.676-3.978a8.531,8.531,0,0,0-.869.351l-4.019-4.019a11.639,11.639,0,0,1,4.888-2.031Zm0-30.148v20.087a16.163,16.163,0,0,0-7.968,3.313L401.3,159.2A36.1,36.1,0,0,1,423.5,150.026Zm-24.959,11.945,14.22,14.231a15.971,15.971,0,0,0-3.312,7.949H389.264A36.021,36.021,0,0,1,398.537,161.972Zm-9.284,26.106h20.192a15.936,15.936,0,0,0,3.312,7.951l-14.326,14.33A36.14,36.14,0,0,1,389.254,188.078Zm11.962,25.069,14.314-14.337a16.03,16.03,0,0,0,7.968,3.307v20.273A36.012,36.012,0,0,1,401.216,213.148Z" transform="translate(-360.837 -121.5)" fill="#fff"/>
    </g>
  </g>
</svg>
