<svg xmlns="http://www.w3.org/2000/svg" width="78" height="78" viewBox="0 0 78 78">
  <g id="Groupe_9710" data-name="Groupe 9710" transform="translate(-419.4 -2394.4)">
    <rect id="Rectangle_109" data-name="Rectangle 109" width="78" height="78" rx="6" transform="translate(419.4 2394.4)" fill="#ebebeb"/>
    <g id="fullscreen-exit" transform="translate(435.224 2410.224)">
      <path id="Tracé_2938" data-name="Tracé 2938" d="M16.13,0A1.466,1.466,0,0,1,17.6,1.466V13.2a4.4,4.4,0,0,1-4.4,4.4H1.466a1.466,1.466,0,1,1,0-2.933H13.2A1.466,1.466,0,0,0,14.664,13.2V1.466A1.466,1.466,0,0,1,16.13,0ZM30.794,0A1.466,1.466,0,0,1,32.26,1.466V13.2a1.466,1.466,0,0,0,1.466,1.466H45.457a1.466,1.466,0,1,1,0,2.933H33.726a4.4,4.4,0,0,1-4.4-4.4V1.466A1.466,1.466,0,0,1,30.794,0ZM0,30.794a1.466,1.466,0,0,1,1.466-1.466H13.2a4.4,4.4,0,0,1,4.4,4.4V45.457a1.466,1.466,0,1,1-2.933,0V33.726A1.466,1.466,0,0,0,13.2,32.26H1.466A1.466,1.466,0,0,1,0,30.794Zm29.327,2.933a4.4,4.4,0,0,1,4.4-4.4H45.457a1.466,1.466,0,1,1,0,2.933H33.726a1.466,1.466,0,0,0-1.466,1.466V45.457a1.466,1.466,0,1,1-2.933,0Z" fill-rule="evenodd"/>
    </g>
  </g>
</svg>
