<svg id="Groupe_39829" data-name="Groupe 39829" xmlns="http://www.w3.org/2000/svg" width="115.28" height="78.6" viewBox="0 0 115.28 78.6">
  <path id="Tracé_7" data-name="Tracé 7" d="M344.062,282.912a19.65,19.65,0,1,0-21.676,0,31.464,31.464,0,0,0-20.6,29.474h5.239a26.2,26.2,0,0,1,52.4,0h5.24A31.465,31.465,0,0,0,344.062,282.912Zm-25.248-16.375a14.41,14.41,0,1,1,14.41,14.41A14.427,14.427,0,0,1,318.814,266.537Z" transform="translate(-275.584 -233.786)" fill="#02134b"/>
  <path id="Tracé_8" data-name="Tracé 8" d="M368.954,270.233a19.631,19.631,0,1,0-27.741-26.347,24.955,24.955,0,0,1,4.632,2.455,14.5,14.5,0,0,1,3.517-3.9,14.384,14.384,0,1,1,8.754,25.83c-.464,0-.921-.027-1.373-.07a24.736,24.736,0,0,1-.882,5.471c.749-.065,1.49-.161,2.255-.161a26.36,26.36,0,0,1,26.2,26.2h5.239A31.464,31.464,0,0,0,368.954,270.233Z" transform="translate(-274.275 -234.207)" fill="#02134b"/>
  <path id="Tracé_9" data-name="Tracé 9" d="M307.865,273.507c.767,0,1.506.1,2.255.161a24.751,24.751,0,0,1-.882-5.471c-.452.043-.909.07-1.373.07a14.4,14.4,0,1,1,12.271-21.927,24.986,24.986,0,0,1,4.632-2.455,19.634,19.634,0,1,0-27.74,26.347,31.465,31.465,0,0,0-20.6,29.474h5.24a26.36,26.36,0,0,1,26.2-26.2Z" transform="translate(-276.425 -234.207)" fill="#02134b"/>
</svg>
