<svg xmlns="http://www.w3.org/2000/svg" width="85.403" height="54.742" viewBox="0 0 85.403 54.742">
  <g id="Groupe_39831" data-name="Groupe 39831" transform="translate(-1223.108 -223.581)">
    <g id="Groupe_20" data-name="Groupe 20" transform="translate(1230.393 223.581)">
      <g id="Groupe_9" data-name="Groupe 9" transform="translate(31.289)">
        <path id="Tracé_12" data-name="Tracé 12" d="M1284.782,239.667a1.114,1.114,0,0,1-1.114-1.114V224.695a1.114,1.114,0,0,1,2.229,0v13.858A1.114,1.114,0,0,1,1284.782,239.667Z" transform="translate(-1283.668 -223.581)" fill="#02134b"/>
      </g>
      <g id="Groupe_10" data-name="Groupe 10" transform="translate(0 31.289)">
        <path id="Tracé_13" data-name="Tracé 13" d="M1240.888,274.932h-5.228a1.114,1.114,0,1,1,0-2.228h5.228a1.114,1.114,0,1,1,0,2.228Z" transform="translate(-1234.545 -272.704)" fill="#02134b"/>
      </g>
      <g id="Groupe_13" data-name="Groupe 13" transform="translate(15.644 4.191)">
        <g id="Groupe_11" data-name="Groupe 11">
          <path id="Tracé_14" data-name="Tracé 14" d="M1261.749,235.036a1.113,1.113,0,0,1-.966-.557l-1.527-2.646a1.114,1.114,0,0,1,1.93-1.114l1.528,2.646a1.114,1.114,0,0,1-.964,1.671Z" transform="translate(-1259.106 -230.161)" fill="#02134b"/>
        </g>
        <g id="Groupe_12" data-name="Groupe 12" transform="translate(3.17 5.491)">
          <path id="Tracé_15" data-name="Tracé 15" d="M1268.957,247.522a1.114,1.114,0,0,1-.966-.557l-3.759-6.51a1.114,1.114,0,1,1,1.93-1.114l3.759,6.51a1.114,1.114,0,0,1-.408,1.522A1.1,1.1,0,0,1,1268.957,247.522Z" transform="translate(-1264.083 -238.782)" fill="#02134b"/>
        </g>
      </g>
      <g id="Groupe_16" data-name="Groupe 16" transform="translate(40.004 4.192)">
        <g id="Groupe_14" data-name="Groupe 14" transform="translate(5.401)">
          <path id="Tracé_16" data-name="Tracé 16" d="M1306.944,235.037a1.114,1.114,0,0,1-.965-1.671l1.528-2.646a1.114,1.114,0,0,1,1.93,1.114l-1.528,2.647A1.113,1.113,0,0,1,1306.944,235.037Z" transform="translate(-1305.83 -230.162)" fill="#02134b"/>
        </g>
        <g id="Groupe_15" data-name="Groupe 15" transform="translate(0 5.491)">
          <path id="Tracé_17" data-name="Tracé 17" d="M1298.464,247.522a1.115,1.115,0,0,1-.965-1.671l3.759-6.51a1.114,1.114,0,1,1,1.93,1.114l-3.759,6.51A1.115,1.115,0,0,1,1298.464,247.522Z" transform="translate(-1297.35 -238.782)" fill="#02134b"/>
        </g>
      </g>
      <g id="Groupe_18" data-name="Groupe 18" transform="translate(4.192 15.644)">
        <g id="Groupe_17" data-name="Groupe 17">
          <path id="Tracé_18" data-name="Tracé 18" d="M1248.238,253.834a1.112,1.112,0,0,1-.556-.149l-6-3.464a1.114,1.114,0,1,1,1.114-1.93l6,3.464a1.114,1.114,0,0,1-.558,2.079Z" transform="translate(-1241.126 -248.142)" fill="#02134b"/>
        </g>
      </g>
      <g id="Groupe_19" data-name="Groupe 19" transform="translate(18.084 17.214)">
        <path id="Tracé_19" data-name="Tracé 19" d="M1273.769,277.658a1.112,1.112,0,0,1-.94-.516l-9.719-15.27a1.114,1.114,0,0,1-.118-.947,15.015,15.015,0,0,1,24.527-6.262,1.114,1.114,0,0,1,.187,1.4l-12.989,21.068a1.114,1.114,0,0,1-.941.529Zm-8.488-16.526,8.473,13.313,11.56-18.751a12.786,12.786,0,0,0-20.033,5.438Z" transform="translate(-1262.936 -250.606)" fill="#02134b"/>
      </g>
    </g>
    <g id="Groupe_21" data-name="Groupe 21" transform="translate(1223.108 242.253)">
      <path id="Tracé_20" data-name="Tracé 20" d="M1224.221,288.966a1.114,1.114,0,0,1-.955-1.685l20.216-33.841a1.117,1.117,0,0,1,.941-.543,1.08,1.08,0,0,1,.956.516l19.308,30.337a1.114,1.114,0,0,1-1.88,1.2l-18.337-28.814-19.29,32.29A1.115,1.115,0,0,1,1224.221,288.966Z" transform="translate(-1223.108 -252.896)" fill="#02134b"/>
    </g>
    <g id="Groupe_22" data-name="Groupe 22" transform="translate(1258.195 226.924)">
      <path id="Tracé_21" data-name="Tracé 21" d="M1327.4,273.234a1.115,1.115,0,0,1-.968-.559l-23.3-40.553-22.873,37.1a1.114,1.114,0,0,1-1.9-1.169l23.855-38.695a1.115,1.115,0,0,1,.948-.529h.017a1.114,1.114,0,0,1,.949.559l24.231,42.176a1.115,1.115,0,0,1-.965,1.669Z" transform="translate(-1278.194 -228.83)" fill="#02134b"/>
    </g>
    <g id="Groupe_23" data-name="Groupe 23" transform="translate(1272.6 242.254)">
      <path id="Tracé_22" data-name="Tracé 22" d="M1311.59,263.422a1.11,1.11,0,0,1-.725-.268l-9.668-8.3a1.114,1.114,0,0,1,1.451-1.691l8.823,7.571,2.952-3.434a1.15,1.15,0,0,1,1.69,0l2.891,3.363,2.968-2.995a1.114,1.114,0,0,1,1.583,1.569l-3.817,3.852a1.114,1.114,0,0,1-1.635-.057l-2.833-3.3-2.833,3.3A1.112,1.112,0,0,1,1311.59,263.422Z" transform="translate(-1300.809 -252.897)" fill="#02134b"/>
    </g>
    <g id="Groupe_24" data-name="Groupe 24" transform="translate(1235.457 255.424)">
      <path id="Tracé_23" data-name="Tracé 23" d="M1250.639,278.615a1.122,1.122,0,0,1-.414-.08l-7.03-2.813a1.114,1.114,0,0,1,.828-2.069l6.656,2.662,8.3-2.689a1.115,1.115,0,0,1,.687,2.121l-8.687,2.812A1.107,1.107,0,0,1,1250.639,278.615Z" transform="translate(-1242.495 -273.573)" fill="#02134b"/>
    </g>
  </g>
</svg>
