<svg xmlns="http://www.w3.org/2000/svg" width="92.636" height="95.814" viewBox="0 0 92.636 95.814">
  <path id="Tracé_78055" data-name="Tracé 78055" d="M91.457,82.811l-17.6-18.2a42.389,42.389,0,0,0,6.7-22.949C80.554,18.688,62.486,0,40.277,0S0,18.688,0,41.658,18.068,83.315,40.277,83.315a39.065,39.065,0,0,0,22.189-6.928l17.6,18.2a3.93,3.93,0,0,0,5.7,0l5.7-5.89A4.263,4.263,0,0,0,91.457,82.811ZM8.055,41.658c0-18.375,14.455-33.326,32.221-33.326S72.5,23.282,72.5,41.658,58.043,74.984,40.277,74.984,8.055,60.033,8.055,41.658Z" fill="#fff"/>
</svg>
