<svg xmlns="http://www.w3.org/2000/svg" width="87.514" height="75.969" viewBox="0 0 87.514 75.969">
  <g id="Groupe_39781" data-name="Groupe 39781" transform="translate(-326.125 -335.351)">
    <path id="Tracé_10" data-name="Tracé 10" d="M378.486,383.254,372.32,389.7l-1.9-2.572a1.884,1.884,0,1,0-3.033,2.236l3.224,4.375a1.884,1.884,0,0,0,1.4.764c.041,0,.081,0,.121,0a1.888,1.888,0,0,0,1.361-.581l7.715-8.061a1.884,1.884,0,0,0-2.723-2.605Z" transform="translate(7.135 8.27)" fill="none" stroke="#f5f5f5" stroke-linecap="round" stroke-width="1"/>
    <path id="Tracé_11" data-name="Tracé 11" d="M358.863,364.4l-6.167,6.443-1.9-2.572a1.884,1.884,0,1,0-3.033,2.234l3.224,4.376a1.884,1.884,0,0,0,1.4.763c.04,0,.08,0,.12,0a1.887,1.887,0,0,0,1.361-.581l7.715-8.061a1.884,1.884,0,1,0-2.721-2.606Z" transform="translate(3.669 4.94)" fill="none" stroke="#f5f5f5" stroke-linecap="round" stroke-width="1"/>
    <path id="Tracé_12" data-name="Tracé 12" d="M406.5,346.235h-5.99V340.55c0-2.591-2.481-4.7-5.531-4.7s-5.531,2.109-5.531,4.7v5.684H375.413V340.55c0-2.591-2.481-4.7-5.53-4.7s-5.531,2.109-5.531,4.7v5.684H350.319V340.55c0-2.591-2.48-4.7-5.53-4.7s-5.53,2.109-5.53,4.7v5.684h-5.991a6.65,6.65,0,0,0-6.642,6.642v51.3a6.65,6.65,0,0,0,6.642,6.642H406.5a6.65,6.65,0,0,0,6.642-6.642v-51.3A6.65,6.65,0,0,0,406.5,346.235Zm-76.1,19.819h16.626v18.409H330.394Zm19.318,0h18.853v18.409H349.712Zm21.544,0h18.853v18.409H371.255Zm21.544,0h16.57v18.409H392.8Zm.413-19.819V340.55c0-.371.7-.931,1.763-.931s1.763.56,1.763.931v13.406c0,.371-.7.931-1.763.931s-1.763-.56-1.763-.931v-7.722Zm-25.093,0V340.55c0-.371.7-.931,1.763-.931s1.761.56,1.761.931v13.406c0,.371-.7.931-1.761.931s-1.763-.56-1.763-.931v-7.722Zm-25.094,0V340.55c0-.371.7-.931,1.763-.931s1.763.56,1.763.931v13.406c0,.371-.7.931-1.763.931s-1.763-.56-1.763-.931v-7.722Zm-12.632,6.642A2.877,2.877,0,0,1,333.267,350h5.991v3.954c0,2.591,2.48,4.7,5.53,4.7s5.53-2.108,5.53-4.7V350h14.032v3.954c0,2.591,2.482,4.7,5.531,4.7s5.53-2.108,5.53-4.7V350h14.031v3.954c0,2.591,2.481,4.7,5.531,4.7s5.531-2.108,5.531-4.7V350h5.99a2.877,2.877,0,0,1,2.873,2.873v9.409H330.394Zm0,51.3V387.155h16.626v19.9H333.267A2.878,2.878,0,0,1,330.394,404.177Zm19.318-17.022h18.853v19.9H349.712Zm21.544,0h18.853v19.9H371.255Zm38.115,17.022a2.878,2.878,0,0,1-2.873,2.875H392.8v-19.9h16.57Z" transform="translate(0 0)" fill="none" stroke="#f5f5f5" stroke-linecap="round" stroke-width="1"/>
  </g>
</svg>
